<?xml version="1.0" encoding="UTF-8"?>
<!-- Created with Inkscape (http://www.inkscape.org/) -->
<svg width="154.15mm" height="153.16mm" version="1.1" viewBox="0 0 154.15 153.16" xml:space="preserve" xmlns="http://www.w3.org/2000/svg"><path d="m74.78 0.040779c-11.858 0.37973-21.394 2.7262-31.766 7.8171-4.4367 2.1777-10.395 5.942-14.263 9.0103-3.0626 2.4298-9.3564 8.7313-11.866 11.881-8.5993 10.791-14.086 23.24-16.164 36.675-0.77686 5.0235-0.96055 14.31-0.38241 19.33 1.4067 12.214 5.4305 23.212 12.225 33.415 13.839 20.78 36.378 33.789 60.401 34.862 2.282 0.10197 4.6158 0.15275 5.1862 0.11265 0.57051-0.0401 2.5305-0.13687 4.3553-0.21497 7.7207-0.33066 17.146-2.6376 25.059-6.133 21.214-9.3696 37.569-27.94 43.697-49.615 6.7837-23.995 1.498-49.168-14.461-68.871-2.5302-3.1238-8.6355-9.1488-11.844-11.688-14.416-11.408-31.848-17.169-50.178-16.582zm1.2309 2.4448h2.4893l9.1049 18.54h-20.699zm1.2449 2.3916-6.8781 14.183h13.743zm0.05168 21.514c3.3066 0.0158 6.6394 0.35368 9.9601 1.0211 7.4109 1.4896 15.26 5.2028 21.354 10.102 2.6484 2.1294 6.8228 6.4433 8.7995 9.093 8.2859 11.107 11.594 24.959 9.2098 38.572-2.4467 13.972-11.097 26.483-23.591 34.12-5.7034 3.4861-13.272 6.0665-20.343 6.9365-3.0338 0.37328-9.4907 0.29506-12.454-0.1509-9.3744-1.4108-17.718-5.03-24.798-10.757-1.1226-0.90807-2.5079-2.1432-3.0784-2.7445-0.45759-0.48233-0.71028-0.74933-0.70228-0.7798l5.17e-4 -5.1e-4 0.001034-0.00104 5.16e-4 -5.1e-4c0.03721-0.0116 0.45514 0.31936 1.3488 1.0309 2.1743 1.7314 6.2445 3.6865 9.2056 4.4214 1.8545 0.46027 3.0217 0.57467 5.6823 0.55707 2.9677-0.0196 3.6157 0.0595 5.7046 0.69763 3.7876 1.1571 5.2734 1.3954 8.7101 1.3984 2.6459 2e-3 3.7419-0.12217 5.9645-0.67645 2.0608-0.51396 3.6369-0.71251 6.4828-0.817 6.0867-0.22347 9.9238-1.5363 14.381-4.9196 1.4181-1.0766 3.2236-2.1512 4.6359-2.76 5.5014-2.3715 8.5168-5.066 11.568-10.336 0.7137-1.2327 1.9162-2.9661 2.6727-3.8525 2.7401-3.2106 4.2803-6.5039 4.8545-10.381 0.16747-1.1308 0.64-3.3319 1.0501-4.8912 1.636-6.2212 1.579-9.5186-0.26252-15.206-0.41306-1.2758-0.93218-3.2471-1.1534-4.3811-0.53942-2.7648-1.6832-4.9816-3.638-7.0492-0.89131-0.94271-1.8283-2.1166-2.082-2.6086-0.65386-1.2681-3.1597-3.8059-4.5377-4.5956-0.6418-0.36778-1.7431-1.1631-2.4474-1.7673-3.6047-3.0927-7.697-3.8827-10.217-1.972-0.99045 0.75085-1.842 2.3979-1.851 3.577-9e-3 1.2698 0.75138 3.461 1.8278 5.2658 1.3418 2.2498 2.1746 5.673 1.9436 7.9897-0.52048 5.2181-5.1918 9.2908-10.639 9.2749-1.544-5e-3 -4.4465-0.64387-5.225-1.1508-0.30212-0.19675-2.0322-1.0099-3.8447-1.8071-3.0379-1.3361-3.4292-1.5899-5.0033-3.2484-3.4051-3.5876-7.7866-6.2274-12.204-7.353-2.9868-0.76113-7.3741-0.87603-10.302-0.26923-4.5999 0.95337-9.0227 3.3649-12.76 6.9572-4.8651 4.6757-7.8568 10.291-9.4304 17.7-0.75777 3.5679-0.83044 9.8436-0.15296 13.214 0.91944 4.5737 2.8125 9.214 5.1764 12.689 0.4792 0.70434 0.75614 1.196 0.70538 1.2366-0.01092 7e-3 -0.03596-3e-3 -0.07493-0.0351-0.80963-0.66149-4.3173-6.1207-5.7402-8.9338-11.416-22.57-4.0159-49.954 17.311-64.061 8.3838-5.5453 18.064-8.3962 27.984-8.3488zm25.706 18.955c1.1474 0.0118 2.5114 0.50204 3.7047 1.4066l0.94826 0.71882-1.2733 0.36535c-1.5166 0.43562-2.7727 1.3294-3.5543 2.529-0.31401 0.48194-0.6637 0.87753-0.77722 0.87953-0.40777 6e-3 -1.4739-2.7232-1.4769-3.7796-2e-3 -0.85785 0.13669-1.1851 0.6811-1.6108 0.44896-0.35101 1.0593-0.5161 1.7477-0.50901zm4.9212 3.591c1.3388 0.0708 2.8118 0.6452 4.2483 1.7322 0.73492 0.55612 1.8841 2.0551 1.8841 2.4577 0 0.0782-0.4323 0.0236-0.96066-0.12144-1.4944-0.41011-3.9091-0.14402-5.563 0.6134-0.80659 0.3694-1.9345 1.1512-2.5068 1.7374l-1.0408 1.0661-0.41031-1.4025c-0.55776-1.9069-0.51728-2.642 0.21291-3.8804 0.91548-1.5526 2.4149-2.2935 4.1362-2.2024zm3.4091 5.1687h5.2e-4c1.3878-0.0131 2.1201 0.12532 3.1114 0.58704 2.3183 1.0798 4.5998 4.0602 5.3377 6.9727h-5.2e-4c0.16742 0.6607 0.26019 1.2443 0.20619 1.2971l-5.2e-4 5.17e-4h-5.1e-4l-5.2e-4 5.17e-4h-5.2e-4v5.16e-4h-5.1e-4c-0.0757 0.03463-0.86045-0.47733-1.7632-1.1529-2.1232-1.5888-4.042-2.3241-6.5298-2.5011-2.3338-0.16613-4.2097 0.2081-6.1304 1.2221l-1.3612 0.71882 3e-3 -1.0707c4e-3 -1.6517 1.056-3.6203 2.4639-4.6101 1.6508-1.1604 2.556-1.4446 4.6648-1.4645zm-51.945 4.1615c0.71181 0.0189 1.4264 0.0776 2.141 0.17725 10.279 1.4335 18.164 9.9973 20.277 22.022 0.64993 3.6986 0.37284 9.447-0.64492 13.382-2.6532 10.258-9.9586 18.356-18.522 20.531-1.9937 0.50625-5.9327 0.85522-7.1887 0.63665-3.1452-0.54735-3.9981-0.76601-5.6508-1.4469-6.2157-2.5609-10.914-7.7476-13.728-15.155-2.1203-5.5813-2.4436-13.084-0.82837-19.213 3.3143-12.577 13.468-21.217 24.145-20.934zm51.433 2.389c2.6911 0 2.9557 0.0481 4.5377 0.82372 4.8711 2.3882 6.8523 6.0022 6.8244 12.449-8e-3 1.7719-0.12168 3.5529-0.25373 3.9579-0.23354 0.71627-0.2531 0.69534-0.71262-0.77308-1.3475-4.3059-4.3581-7.9448-8.1215-9.817-2.7584-1.3722-4.4712-1.7139-7.7628-1.5482l-2.6303 0.13229 0.52142-1.1948c0.69697-1.5974 1.5791-2.4861 3.3042-3.329 1.2987-0.63448 1.7075-0.70125 4.2933-0.70125zm-52.32 3.0468c-1.5677 0.0262-3.1447 0.29251-4.7475 0.7984-7.3676 2.3254-12.869 9.0816-14.524 17.837-0.59166 3.1293-0.40646 8.9028 0.3793 11.823 1.2543 4.6615 4.1941 9.2255 7.5928 11.788 2.7332 2.061 5.0719 3.0903 8.091 3.5605 1.5114 0.23538 4.4024 0.0824 6.1231-0.32401 1.7474-0.41269 4.7709-1.8534 6.5712-3.1311 2.9252-2.076 5.3626-5.1417 7.1784-9.0284 1.5322-3.2797 2.1067-5.8838 2.2588-10.239 0.1514-4.3363-0.20604-6.6525-1.5932-10.327-1.2056-3.1935-2.3111-4.8994-4.8204-7.4368-1.8466-1.8673-2.6036-2.4255-4.6674-3.4411-2.6412-1.2998-5.229-1.9241-7.8419-1.8805zm82.066 2.4572h2.0996l3.2386 6.7123h3.8132l0.62994-0.86403v2.4148l-0.65216-0.84181h-3.4484l4.1005 8.4625h-17.463l4.0897-8.4625h-3.4597l-0.62994 0.84181v-2.4148l0.60772 0.86403h1.0061c0.51579 0 0.96508-0.0293 1.3482-0.08837 0.39055-0.05906 0.73661-0.16634 1.0387-0.32143 0.3021-0.16247 0.57139-0.38743 0.80719-0.67541 0.24316-0.29537 0.47902-0.6758 0.70745-1.141zm-34.029 0.7121c1.4162 0.0247 2.8852 0.25769 4.1341 0.69453 4.8016 1.6795 8.2668 5.5799 9.5958 10.8 0.44358 1.7423 0.47668 2.3511 0.26665 4.9124-0.27076 3.3017-0.92865 5.7148-2.2371 8.2052-0.49245 0.9373-1.2104 2.0039-1.5952 2.3704l-0.6997 0.66663 0.0858-3.0148c0.17105-6.0088-1.9132-11.606-5.9097-15.87-2.3061-2.4603-6.1558-4.73-9.0723-5.349-0.79246-0.16821-1.5359-0.38768-1.6521-0.48782-0.32675-0.2816 1.7561-1.794 3.266-2.3714 1.038-0.39698 2.4016-0.58073 3.8179-0.55604zm35.08 1.3369-2.2329 4.6633h4.4545zm-136.51 0.18345h16.498l-3.8633 8.3339h3.268l0.59531-0.82889v2.3781l-0.57464-0.85111h-0.94981c-0.49422 0-0.92271 0.02917-1.2847 0.08733-0.36198 0.05816-0.68562 0.16712-0.971 0.32711-0.28537 0.15276-0.54282 0.37475-0.77256 0.66559-0.22277 0.2836-0.44206 0.65444-0.65784 1.1126l-2.0464 4.4178h-1.9839l-3.0592-6.6104h-3.6024l-0.59531 0.85111v-2.3781l0.6165 0.82889h3.2577zm76.138 1.2159c0.0022-2.69e-4 0.0046 0 0.0072 0 0.15594-7e-3 1.0139 0.37096 1.9932 0.8816 3.6942 1.9264 7.1383 5.8834 8.9369 10.268 1.5432 3.762 2.008 6.3606 2.004 11.212-3e-3 4.6047-0.28185 6.3559-1.6278 10.238-2.2981 6.6286-7.724 12.157-13.897 14.16-1.7652 0.57268-2.6354 0.68616-5.8348 0.76016-3.3918 0.0785-6.1144-0.22127-6.6254-0.72916-0.0698-0.0694 0.60506-0.48445 1.5002-0.92242 5.5569-2.719 10.044-7.2211 13.113-13.157 1.8904-3.6569 2.7306-5.946 3.4236-9.3255 1.466-7.1501 0.61063-15.377-2.2211-21.358-0.4964-1.0485-0.85022-1.9583-0.78652-2.0216 3e-3 -3e-3 0.0078-0.0054 0.01447-0.0062zm-73.36 0.44235 3.0592 6.6756h4.8343l3.0592-6.6756zm90.355 1.0723h5.2e-4c0.263 2e-3 0.54845 0.01953 0.8785 0.05013 5.6139 0.52104 11.979 5.6755 14.178 11.481 2.1462 5.6678 2.143 11.092-0.0103 15.689-1.956 4.1769-4.9082 7.1868-9.0413 9.217-1.0126 0.49735-1.9108 0.90434-1.9957 0.90434-0.085 0 0.0935-0.34608 0.39687-0.76946 0.94317-1.3165 2.5331-4.938 3.0784-7.012 1.5419-5.8646 0.64309-12.977-2.42-19.152-1.9245-3.8795-4.6392-6.8839-7.8652-8.7049l-1.1152-0.62942 1.5818-0.58808c0.96045-0.35698 1.5447-0.49279 2.3337-0.48679zm-40.188 0.61495v5.17e-4c2.5463 0 2.8412 0.0551 4.4173 0.82631 3.3726 1.6502 5.9928 5.1903 6.8631 9.2728 1.7088 8.0156-3.0479 16.286-10.114 17.584-1.6864 0.30975-1.537 0.30992-3.4458-6e-3 -4.0692-0.67366-7.813-4.2679-9.2868-8.9157-0.61606-1.9428-0.74845-5.8088-0.27492-8.0171 0.94423-4.4035 3.7795-8.235 7.3303-9.9064 1.6601-0.7814 1.9693-0.83871 4.5103-0.83871zm29.958 0.59014 2.0686 0.1726c7.3096 0.61168 13.456 8.2664 14.908 18.565 1.6017 11.361-4.7729 21.502-15.15 24.102-1.7286 0.43294-6.3769 0.74499-6.3769 0.42788 0-0.0473 0.64527-0.52771 1.434-1.0676 1.9359-1.3252 5.0206-4.631 6.4446-6.9066 3.183-5.0865 4.7505-12.098 4.0974-18.325-0.70078-6.6819-2.8593-12.039-6.3851-15.847zm51.044 1.2532-3.2386 6.7789h11.594l-3.2386-6.7789zm-127.8 3.8432 2.0991 4.5925 2.1089-4.5925zm55.461 54.727h21.086l-9.2749 17.815h-2.5358zm3.5367 1.8883 7.0063 13.629 6.9929-13.629z" fill="#5e1c24" stroke-width=".9771"/></svg>
